<svg width="1024" height="1024" viewBox="0 0 1024 1024" fill="none" xmlns="http://www.w3.org/2000/svg">
<rect width="1024" height="1024" rx="330" fill="#09090B"/>
<path d="M484.757 345.606C515.308 345.606 540.074 320.846 540.074 290.303C540.074 259.76 515.308 235 484.757 235C454.206 235 429.44 259.76 429.44 290.303C429.44 320.846 454.206 345.606 484.757 345.606Z" fill="#2fd420"/>
<path d="M678.366 456.212C708.917 456.212 733.683 431.452 733.683 400.909C733.683 370.366 708.917 345.606 678.366 345.606C647.816 345.606 623.049 370.366 623.049 400.909C623.049 431.452 647.816 456.212 678.366 456.212Z" fill="#2fd420"/>
<path d="M733.683 677.425C764.234 677.425 789 652.665 789 622.122C789 591.579 764.234 566.819 733.683 566.819C703.132 566.819 678.366 591.579 678.366 622.122C678.366 652.665 703.132 677.425 733.683 677.425Z" fill="#2fd420"/>
<path d="M429.44 456.212C447.601 456.212 465.584 459.789 482.362 466.737C499.141 473.685 514.386 483.869 527.228 496.707C540.069 509.546 550.256 524.787 557.206 541.561C564.155 558.336 567.732 576.314 567.732 594.47V691.251C567.725 714.38 559.432 736.742 544.356 754.286C529.28 771.83 508.418 783.397 485.548 786.89C462.678 790.383 439.313 785.572 419.685 773.329C400.057 761.085 385.464 742.219 378.549 720.147C366.748 682.08 341.855 657.147 303.871 645.349C281.804 638.439 262.941 623.861 250.694 604.252C238.446 584.644 233.624 561.3 237.1 538.445C240.576 515.59 252.12 494.734 269.644 479.65C287.167 464.567 309.512 456.253 332.636 456.212H429.44Z" fill="#2fd420"/>
<path d="M484.757 345.606C515.308 345.606 540.074 320.846 540.074 290.303C540.074 259.76 515.308 235 484.757 235C454.206 235 429.44 259.76 429.44 290.303C429.44 320.846 454.206 345.606 484.757 345.606Z" stroke="#2fd420" stroke-width="47" stroke-linecap="round" stroke-linejoin="round"/>
<path d="M678.366 456.212C708.917 456.212 733.683 431.452 733.683 400.909C733.683 370.366 708.917 345.606 678.366 345.606C647.816 345.606 623.049 370.366 623.049 400.909C623.049 431.452 647.816 456.212 678.366 456.212Z" stroke="#2fd420" stroke-width="47" stroke-linecap="round" stroke-linejoin="round"/>
<path d="M733.683 677.425C764.234 677.425 789 652.665 789 622.122C789 591.579 764.234 566.819 733.683 566.819C703.132 566.819 678.366 591.579 678.366 622.122C678.366 652.665 703.132 677.425 733.683 677.425Z" stroke="#2fd420" stroke-width="47" stroke-linecap="round" stroke-linejoin="round"/>
<path d="M429.44 456.212C447.601 456.212 465.584 459.789 482.362 466.737C499.141 473.685 514.386 483.869 527.228 496.707C540.069 509.546 550.256 524.787 557.206 541.561C564.155 558.336 567.732 576.314 567.732 594.47V691.251C567.725 714.38 559.432 736.742 544.356 754.286C529.28 771.83 508.418 783.397 485.548 786.89C462.678 790.383 439.313 785.572 419.685 773.329C400.057 761.085 385.464 742.219 378.549 720.147C366.748 682.08 341.855 657.147 303.871 645.349C281.804 638.439 262.941 623.861 250.694 604.252C238.446 584.644 233.624 561.3 237.1 538.445C240.576 515.59 252.12 494.734 269.644 479.65C287.167 464.567 309.512 456.253 332.636 456.212H429.44Z" stroke="#2fd420" stroke-width="47" stroke-linecap="round" stroke-linejoin="round"/>
</svg>
